Coordinates
version=1
nRows=21
nColumns=19
inDegrees=yes

Units are S.I. units (second, meters, Newtons, ...)
If the header above contains a line with 'inDegrees', this indicates whether rotational values are in degrees (yes) or radians (no).

endheader
time	pelvis_tilt	pelvis_list	pelvis_rotation	pelvis_tx	pelvis_ty	pelvis_tz	hip_flexion_r	hip_adduction_r	hip_rotation_r	knee_angle_r	knee_angle_r_beta	ankle_angle_r	hip_flexion_l	hip_adduction_l	hip_rotation_l	knee_angle_l	knee_angle_l_beta	ankle_angle_l
     15.14666667	     -9.24689954	     -5.14979639	      0.11857666	      2.27457172	      0.96288348	      1.04924327	     25.33433095	      7.86386923	     -1.26784025	      0.60791927	      0.01061019	      6.89530920	    -13.42714097	    -11.94338249	    -24.53260064	     45.87837046	      0.80072862	    -14.40783928
     15.15333333	     -8.36944705	     -6.14985663	      0.00144766	      2.27528390	      0.96036695	      1.04998374	     23.96676714	      8.99111195	     -2.01901702	      1.30015254	      0.02269194	      5.90058171	    -13.58933644	    -13.61472625	    -24.82604794	     49.14480388	      0.85773864	    -14.12382803
     15.16000000	     -7.49872656	     -7.08476871	     -0.32081172	      2.27533245	      0.95754644	      1.05095895	     23.17919808	     10.07565937	     -3.18193676	      3.41692781	      0.05963664	      5.30671758	    -13.62345835	    -15.11274131	    -25.02311120	     52.46995189	      0.91577342	    -13.92778676
     15.16666667	     -7.24642088	     -7.82393934	     -0.82934238	      2.27460404	      0.95368363	      1.05212396	     23.65132308	     10.87049971	     -4.75221126	      6.94947336	      0.12129119	      5.08746141	    -12.75987316	    -16.32836927	    -24.92856957	     55.99806827	      0.97735067	    -13.68084066
     15.17333333	     -7.03679932	     -8.36922071	     -1.47445839	      2.27350633	      0.94942716	      1.05317928	     24.39509410	     11.36774440	     -6.25024168	     11.16311270	      0.19483307	      5.18941886	    -11.74138601	    -17.21619938	    -24.69292347	     59.47842552	      1.03809436	    -13.43852937
     15.18000000	     -6.01746721	     -9.05045083	     -1.98822638	      2.27244433	      0.94580880	      1.05374128	     24.11356705	     11.87483303	     -7.54898421	     15.23037504	      0.26582019	      5.41602779	    -11.57804610	    -18.14569610	    -24.43829375	     62.72508684	      1.09475929	    -13.21099766
     15.18666667	     -6.48431251	     -8.98360409	     -2.67577632	      2.27071494	      0.94055235	      1.05436506	     25.65769430	     11.56006767	     -8.39100398	     19.89428851	      0.34722084	      6.12557357	     -9.35407468	    -18.12014371	    -23.40019453	     66.14441922	      1.15443790	    -12.86635626
     15.19333333	     -6.08639044	     -9.18293598	     -3.21624678	      2.26913952	      0.93629587	      1.05459768	     25.91525392	     11.51758520	     -8.80085860	     23.93130490	      0.41768006	      7.07496435	     -8.07334306	    -18.29210129	    -22.47336495	     69.27734971	      1.20911785	    -12.49325204
     15.20000000	     -5.79663409	     -9.37251489	     -3.72201883	      2.26743547	      0.93218873	      1.05470496	     26.05387566	     11.51545617	     -8.82373298	     27.55523237	      0.48092953	      8.30050653	     -6.51512568	    -18.38802613	    -21.39211096	     72.30504836	      1.26196116	    -12.00852349
     15.20666667	     -5.09315184	     -9.63702405	     -4.10058088	      2.26563443	      0.92892568	      1.05462404	     25.44843095	     11.62057647	     -8.57063412	     30.63220198	      0.53463278	      9.86725635	     -5.30219909	    -18.48105364	    -20.24462236	     75.10447000	      1.31082028	    -11.43733546
     15.21333333	     -4.55385192	     -9.91948387	     -4.46277422	      2.26380340	      0.92603980	      1.05460943	     24.74005254	     11.82125235	     -8.10815739	     33.22296395	      0.57985011	     11.61654301	     -3.79127697	    -18.52888874	    -18.96672117	     77.73003843	      1.35664510	    -10.72165999
     15.22000000	     -3.88311029	    -10.32230931	     -4.82054357	      2.26207670	      0.92393542	      1.05475546	     23.47948019	     12.26498630	     -7.34864487	     35.09626855	      0.61254544	     13.63912867	     -2.40749519	    -18.73339989	    -17.81810497	     80.10518819	      1.39809928	    -10.05628275
     15.22666667	     -4.34823427	    -10.28438201	     -4.93521338	      2.26004124	      0.92127811	      1.05467846	     23.34825662	     12.16782373	     -6.93232694	     36.74925093	      0.64139543	     15.52362460	      0.69310738	    -18.35308933	    -15.85394994	     82.47813103	      1.43951495	     -9.16538305
     15.23333333	     -4.14880927	    -10.53578859	     -5.09616848	      2.25834942	      0.91999473	      1.05483168	     22.02330764	     12.46117773	     -6.27550941	     37.60305132	      0.65629705	     17.43076242	      2.86314843	    -18.32030311	    -14.35354751	     84.43074101	      1.47359442	     -8.14540140
     15.24000000	     -3.95187116	    -10.77088427	     -5.11816735	      2.25692440	      0.91941326	      1.05502114	     20.35699914	     12.73286282	     -5.66638821	     37.84066438	      0.66044418	     19.19247394	      5.08023791	    -18.26327727	    -12.79603370	     86.07576515	      1.50230551	     -7.07780239
     15.24666667	     -3.87994064	    -10.93321582	     -5.12999247	      2.25569778	      0.91932757	      1.05536786	     18.53298054	     12.96364728	     -4.98931891	     37.56392745	      0.65561421	     20.71878428	      7.42230832	    -18.12805671	    -11.29544277	     87.41656434	      1.52570687	     -5.93363549
     15.25333333	     -3.95675952	    -11.01385788	     -5.06580382	      2.25476060	      0.91969434	      1.05584987	     16.59971015	     13.12318368	     -4.33572751	     36.78925501	      0.64209363	     21.93709720	      9.91363162	    -17.93006490	     -9.83329027	     88.43545443	      1.54348986	     -4.76284571
     15.26000000	     -4.08573735	    -10.73756125	     -5.28022771	      2.25404174	      0.92061595	      1.05678975	     14.53949386	     13.03147472	     -3.17865576	     35.74718278	      0.62390604	     22.91607399	     12.23512581	    -17.40821920	     -8.89355797	     89.01149522	      1.55354366	     -3.61488082
     15.26666667	     -4.39448918	    -10.83343159	     -4.87408757	      2.25382238	      0.92170893	      1.05730871	     12.37364921	     13.15730979	     -2.86400626	     33.98813533	      0.59320487	     23.27062460	     14.96379614	    -17.25469636	     -7.35212884	     89.43769773	      1.56098230	     -2.38950768
     15.27333333	     -4.83119355	    -10.26764614	     -5.07333087	      2.25373853	      0.92323979	      1.05850422	     10.34569909	     12.73147508	     -1.78639365	     32.34157920	      0.56446704	     23.43206482	     17.40196525	    -16.55045844	     -6.82429022	     89.31380790	      1.55882002	     -1.16929520
     15.28000000	     -5.10708874	    -10.16634555	     -4.69348160	      2.25397874	      0.92514494	      1.05918509	      7.88985158	     12.69880258	     -1.23610824	     30.03565261	      0.52422103	     22.86112398	     19.81951984	    -16.23476231	     -5.75875225	     89.03586345	      1.55396897	     -0.03186396
